<svg xmlns="http://www.w3.org/2000/svg" width="54.028" height="31.926" viewBox="0 0 54.028 31.926">
  <g id="Group_9489" data-name="Group 9489" transform="translate(175.512 842.963)">
    <g id="Group_9488" data-name="Group 9488" transform="translate(-175.512 -842.963)">
      <g id="Group_9207" data-name="Group 9207" transform="translate(0 0)">
        <path id="Path_3695" data-name="Path 3695" d="M51.572,55.2H2.456A2.463,2.463,0,0,1,0,52.742V25.728a2.463,2.463,0,0,1,2.456-2.456H51.572a2.463,2.463,0,0,1,2.456,2.456V52.742A2.463,2.463,0,0,1,51.572,55.2Z" transform="translate(0 -23.272)" fill="#157511"/>
        <path id="Path_3696" data-name="Path 3696" d="M67.959,73.854H28.238a4.98,4.98,0,0,0-4.965-4.965V51.511a4.98,4.98,0,0,0,4.965-4.965H67.959a4.98,4.98,0,0,0,4.965,4.965V68.889A4.98,4.98,0,0,0,67.959,73.854Z" transform="translate(-20.79 -44.063)" fill="#fff"/>
        <ellipse id="Ellipse_9" data-name="Ellipse 9" cx="9.93" cy="10.171" rx="9.93" ry="10.171" transform="translate(17.378 5.965)" fill="#157511"/>
        <ellipse id="Ellipse_10" data-name="Ellipse 10" cx="2.483" cy="2.483" rx="2.483" ry="2.483" transform="translate(9.93 13.654)" fill="#157511"/>
        <ellipse id="Ellipse_11" data-name="Ellipse 11" cx="2.483" cy="2.483" rx="2.483" ry="2.483" transform="translate(39.721 13.654)" fill="#157511"/>
      </g>
      <g id="Icon_awesome-rupee-sign" data-name="Icon awesome-rupee-sign" transform="translate(22.375 9.745)">
        <path id="Icon_awesome-rupee-sign-2" data-name="Icon awesome-rupee-sign" d="M9.214,4.136a.356.356,0,0,0,.359-.354V2.6a.356.356,0,0,0-.359-.354H.359A.356.356,0,0,0,0,2.6V3.922a.356.356,0,0,0,.359.354H2.91a2.171,2.171,0,0,1,1.824.8H.359A.356.356,0,0,0,0,5.433V6.611a.356.356,0,0,0,.359.354H5.108A2.06,2.06,0,0,1,2.872,8.693H.359A.356.356,0,0,0,0,9.046v1.562a.351.351,0,0,0,.115.26l4.937,4.49a.362.362,0,0,0,.243.094h2.47a.353.353,0,0,0,.243-.613L3.5,10.734A4.074,4.074,0,0,0,7.634,6.965h1.58a.356.356,0,0,0,.359-.354V5.433a.356.356,0,0,0-.359-.354H7.458a4.007,4.007,0,0,0-.426-.943Z" transform="translate(0 -2.25)" fill="#fff"/>
      </g>
    </g>
  </g>
</svg>
