<svg id="google-pay" xmlns="http://www.w3.org/2000/svg" width="45.312" height="38.646" viewBox="0 0 45.312 38.646">
  <path id="Path_1712" data-name="Path 1712" d="M139.8,36.347a9.367,9.367,0,0,0-12.791,3.429l-6.523,11.3c-1.887,3.263.542,4.4,3.252,6.027l6.276,3.623a4.442,4.442,0,0,0,6.066-1.624l6.706-11.612A8.155,8.155,0,0,0,139.8,36.347Z" transform="translate(-98.57 -28.869)" fill="#ea4335"/>
  <path id="Path_1713" data-name="Path 1713" d="M81.229,44.945l-6.276-3.623c-3.465-1.923-5.427-2.051-6.849.21L58.846,57.564a9.351,9.351,0,0,0,3.429,12.777,8.155,8.155,0,0,0,11.142-2.986l9.434-16.342A4.437,4.437,0,0,0,81.229,44.945Z" transform="translate(-47.379 -32.79)" fill="#fbbc04"/>
  <path id="Path_1714" data-name="Path 1714" d="M70.911,3.914,66.5,1.368A10.194,10.194,0,0,0,52.577,5.1L44.183,19.635a4.484,4.484,0,0,0,1.641,6.127l4.937,2.85a5.1,5.1,0,0,0,6.963-1.865L67.313,10.14a7.191,7.191,0,0,1,9.824-2.632Z" transform="translate(-35.853 0)" fill="#34a853"/>
  <path id="Path_1715" data-name="Path 1715" d="M17.917,36.71l-4.765-2.745a4.446,4.446,0,0,0-6.066,1.622l-5.718,9.88A10.154,10.154,0,0,0,5.1,59.356l3.628,2.089,4.4,2.535,1.91,1.1a7.807,7.807,0,0,1-2.394-10.4l1.481-2.557,5.421-9.368A4.424,4.424,0,0,0,17.917,36.71Z" transform="translate(0 -27.452)" fill="#4285f4"/>
</svg>
