<svg xmlns="http://www.w3.org/2000/svg" width="62.175" height="62.175" viewBox="0 0 62.175 62.175">
  <g id="Group_9487" data-name="Group 9487" transform="translate(-250 197)">
    <circle id="ellipse30" cx="25.842" cy="25.842" r="25.842" transform="translate(250 -146.702) rotate(-76.714)" fill="#5f259f"/>
    <path id="path36" d="M33.567,16.9a1.911,1.911,0,0,0-1.877-1.877H28.226l-7.94-9.1a2.925,2.925,0,0,0-3.032-.866l-2.743.866a.639.639,0,0,0-.289,1.011l8.662,8.229H9.747a.682.682,0,0,0-.722.722v1.444A1.911,1.911,0,0,0,10.9,19.21h2.021v6.93c0,5.2,2.743,8.229,7.363,8.229a9.99,9.99,0,0,0,4.042-.722v4.62a2.28,2.28,0,0,0,2.31,2.31h2.021a.932.932,0,0,0,.866-.866V19.066h3.32a.682.682,0,0,0,.722-.722ZM24.328,29.316a6.882,6.882,0,0,1-2.887.577c-2.31,0-3.465-1.155-3.465-3.754V19.21h6.352Z" transform="translate(259.251 -189.555)" fill="#fff"/>
  </g>
</svg>
